# xmcd
#
# Track frame offsets:
#	150
#	8517
#	21672
#	30247
#	38639
#	47070
#	60595
#	67858
#	75394
#	82900
#	91094
#	97899
#	104654
#	110992
#	118651
#	126013
#
# Disc length: 1787 seconds
#
# Revision: 0
# Processed by: cddbd v1.5.2PL0 Copyright (c) Steve Scherf et al.
# Submitted via: EasyCDDAExtractor 2010.6.0.0
#
DISCID=ba06f910
DTITLE=Various Artist - Aires de la ribera
DYEAR=1990
DGENRE=Cult
TTITLE0=Yo quisiera ser guitarra - Jesús jiménez
TTITLE1=Juicio oral - Jesús jiménez
TTITLE2=Carcelera si es que muero - Jesús jiménez
TTITLE3=Yo siembro flores con llanto - Jesús jiménez
TTITLE4=Cuerdas para mi guitarra - Jesús jiménez
TTITLE5=Palomica - Jesús jiménez
TTITLE6=Quisiera volver, quisiera - Jesús jiménez
TTITLE7=Le canto a arnedo - Jesús jiménez
TTITLE8=Como matas de romero - Jesús jiménez
TTITLE9=Siempre que vengo a tu vera - Jesús jiménez
TTITLE10=No sabe que es emoción  - Jesús jiménez
TTITLE11=Con rocio mañanero - Jesús jiménez
TTITLE12=Los dos estamos en paz - Jesús jiménez
TTITLE13=Los olivares - Jesús jiménez
TTITLE14=Siembra el popbre labrador - Jesús jiménez
TTITLE15=Tengo plantada una flor - Jesús jiménez
EXTD=
EXTT0=
EXTT1=
EXTT2=
EXTT3=
EXTT4=
EXTT5=
EXTT6=
EXTT7=
EXTT8=
EXTT9=
EXTT10=
EXTT11=
EXTT12=
EXTT13=
EXTT14=
EXTT15=
PLAYORDER=
